<svg width="34" height="33" xmlns="http://www.w3.org/2000/svg" xmlns:xlink="http://www.w3.org/1999/xlink" overflow="hidden"><defs><clipPath id="clip0"><rect x="611" y="122" width="34" height="33"/></clipPath><clipPath id="clip1"><rect x="618" y="130" width="18" height="18"/></clipPath><clipPath id="clip2"><rect x="618" y="130" width="18" height="18"/></clipPath><clipPath id="clip3"><rect x="618" y="130" width="18" height="18"/></clipPath></defs><g clip-path="url(#clip0)" transform="translate(-611 -122)"><path d="M615.5 138.5C615.5 130.216 621.768 123.5 629.5 123.5 637.232 123.5 643.5 130.216 643.5 138.5 643.5 146.784 637.232 153.5 629.5 153.5 621.768 153.5 615.5 146.784 615.5 138.5Z" stroke="#C00000" stroke-width="1.33333" stroke-miterlimit="8" fill="#FFFFFF" fill-rule="evenodd"/><path d="M613.5 139.5C613.5 131.216 619.768 124.5 627.5 124.5 635.232 124.5 641.5 131.216 641.5 139.5 641.5 147.784 635.232 154.5 627.5 154.5 619.768 154.5 613.5 147.784 613.5 139.5Z" stroke="#C00000" stroke-width="1.33333" stroke-miterlimit="8" fill="#FFFFFF" fill-rule="evenodd"/><g clip-path="url(#clip1)"><g clip-path="url(#clip2)"><g clip-path="url(#clip3)"><path d="M634.5 137.875 628.125 137.875 628.125 131.5 625.875 131.5 625.875 137.875 619.5 137.875 619.5 140.125 625.875 140.125 625.875 146.5 628.125 146.5 628.125 140.125 634.5 140.125Z" fill="#C00000"/></g></g></g></g></svg>