<svg width="24" height="24" xmlns="http://www.w3.org/2000/svg" xmlns:xlink="http://www.w3.org/1999/xlink" overflow="hidden"><defs><clipPath id="clip0"><rect x="917" y="148" width="24" height="24"/></clipPath></defs><g clip-path="url(#clip0)" transform="translate(-917 -148)"><path d="M934.28 157.28C934.562 156.977 934.546 156.502 934.243 156.22 933.955 155.952 933.508 155.952 933.22 156.22L927.25 162.19 924.78 159.72C924.477 159.438 924.002 159.454 923.72 159.757 923.452 160.045 923.452 160.492 923.72 160.78L926.72 163.78C927.013 164.072 927.487 164.072 927.78 163.78L934.28 157.28Z" fill="#A6A6A6"/><path d="M929 149C922.925 149 918 153.925 918 160 918 166.075 922.925 171 929 171 935.075 171 940 166.075 940 160 940 153.925 935.075 149 929 149ZM919.5 160C919.5 154.753 923.753 150.5 929 150.5 934.247 150.5 938.5 154.753 938.5 160 938.5 165.247 934.247 169.5 929 169.5 923.753 169.5 919.5 165.247 919.5 160Z" fill="#A6A6A6" fill-rule="evenodd"/></g></svg>