<svg width="24" height="24" viewBox="0 0 24 24" xmlns="http://www.w3.org/2000/svg" xmlns:xlink="http://www.w3.org/1999/xlink" overflow="hidden"><path d="M16 12C16 14.2091 14.2091 16 12 16 9.79086 16 8 14.2091 8 12 8 9.79086 9.79086 8 12 8 14.2091 8 16 9.79086 16 12ZM14.5 12C14.5 13.3807 13.3807 14.5 12 14.5 10.6193 14.5 9.5 13.3807 9.5 12 9.5 10.6193 10.6193 9.5 12 9.5 13.3807 9.5 14.5 10.6193 14.5 12Z" fill="#A6A6A6" fill-rule="evenodd"/><path d="M12 1C11.732 1 11.466 1.01 11.203 1.028 10.44 1.083 9.858 1.645 9.691 2.332L9.339 3.782C9.319 3.86 9.249 3.954 9.114 4.002 8.86675 4.09162 8.62382 4.19273 8.386 4.305 8.256 4.365 8.14 4.349 8.071 4.307L6.797 3.531C6.193 3.163 5.385 3.177 4.807 3.678 4.404 4.026 4.027 4.404 3.678 4.806 3.178 5.385 3.163 6.193 3.531 6.796L4.307 8.071C4.349 8.14 4.366 8.256 4.305 8.386 4.193 8.623 4.092 8.866 4.003 9.114 3.953 9.249 3.86 9.32 3.782 9.339L2.332 9.691C1.645 9.858 1.083 10.44 1.028 11.203 0.989968 11.7337 0.989968 12.2663 1.028 12.797 1.083 13.56 1.645 14.142 2.332 14.309L3.782 14.661C3.86 14.681 3.954 14.751 4.002 14.886 4.092 15.134 4.193 15.377 4.305 15.615 4.365 15.744 4.349 15.86 4.307 15.929L3.531 17.203C3.163 17.807 3.177 18.615 3.678 19.193 4.026 19.596 4.404 19.973 4.806 20.322 5.385 20.822 6.193 20.837 6.796 20.469L8.071 19.693C8.14 19.651 8.256 19.634 8.386 19.695 8.623 19.807 8.866 19.908 9.114 19.997 9.249 20.047 9.32 20.14 9.339 20.218L9.691 21.668C9.858 22.355 10.44 22.917 11.203 22.971 11.7337 23.0091 12.2663 23.0091 12.797 22.971 13.56 22.917 14.142 22.355 14.309 21.668L14.661 20.218C14.681 20.14 14.751 20.046 14.886 19.998 15.134 19.908 15.377 19.807 15.615 19.695 15.744 19.635 15.86 19.651 15.929 19.693L17.203 20.469C17.807 20.837 18.615 20.823 19.193 20.322 19.596 19.974 19.973 19.596 20.322 19.194 20.822 18.615 20.837 17.807 20.469 17.204L19.693 15.929C19.651 15.86 19.634 15.744 19.695 15.614 19.807 15.377 19.908 15.134 19.997 14.886 20.047 14.751 20.14 14.68 20.218 14.661L21.668 14.309C22.355 14.142 22.917 13.56 22.971 12.797 23.0091 12.2663 23.0091 11.7337 22.971 11.203 22.917 10.44 22.355 9.858 21.668 9.691L20.218 9.339C20.14 9.319 20.046 9.249 19.998 9.114 19.9084 8.86676 19.8072 8.62383 19.695 8.386 19.635 8.256 19.651 8.14 19.693 8.071L20.469 6.797C20.837 6.193 20.823 5.385 20.322 4.807 19.974 4.404 19.596 4.027 19.194 3.678 18.615 3.178 17.807 3.163 17.204 3.531L15.929 4.307C15.86 4.349 15.744 4.366 15.614 4.305 15.3762 4.19308 15.1332 4.09231 14.886 4.003 14.751 3.953 14.68 3.86 14.661 3.782L14.309 2.332C14.142 1.645 13.56 1.083 12.797 1.028 12.5318 1.00917 12.2659 0.999826 12 1ZM11.31 2.525C11.7694 2.49206 12.2306 2.49206 12.69 2.525 12.745 2.529 12.825 2.575 12.852 2.685L13.203 4.135C13.356 4.763 13.829 5.215 14.376 5.413 14.581 5.487 14.781 5.57 14.976 5.662 15.5295 5.9297 16.1803 5.9019 16.709 5.588L17.984 4.812C18.081 4.752 18.17 4.776 18.212 4.812 18.56 5.114 18.886 5.44 19.188 5.788 19.224 5.83 19.248 5.918 19.188 6.016L18.412 7.29C18.0977 7.81891 18.0699 8.47024 18.338 9.024 18.43 9.219 18.513 9.419 18.586 9.624 18.784 10.171 19.238 10.644 19.864 10.796L21.314 11.149C21.425 11.175 21.471 11.255 21.475 11.31 21.5079 11.7694 21.5079 12.2306 21.475 12.69 21.471 12.745 21.425 12.825 21.315 12.852L19.865 13.203C19.2692 13.3549 18.7893 13.7954 18.587 14.376 18.5131 14.5798 18.4297 14.78 18.337 14.976 18.0696 15.5297 18.0978 16.1805 18.412 16.709L19.188 17.984C19.248 18.081 19.224 18.17 19.188 18.212 18.8866 18.5604 18.5604 18.8866 18.212 19.188 18.17 19.224 18.082 19.248 17.984 19.188L16.709 18.412C16.1803 18.0981 15.5295 18.0703 14.976 18.338 14.78 18.43 14.5798 18.5128 14.376 18.586 13.7958 18.7886 13.3557 19.2685 13.204 19.864L12.851 21.314C12.825 21.425 12.745 21.471 12.69 21.475 12.2306 21.5079 11.7694 21.5079 11.31 21.475 11.255 21.471 11.175 21.425 11.148 21.315L10.797 19.865C10.6451 19.2692 10.2046 18.7893 9.624 18.587 9.4202 18.5131 9.21998 18.4297 9.024 18.337 8.47007 18.0692 7.81874 18.0974 7.29 18.412L6.016 19.188C5.919 19.248 5.83 19.224 5.788 19.188 5.43958 18.8866 5.11339 18.5604 4.812 18.212 4.776 18.17 4.752 18.082 4.812 17.984L5.588 16.709C5.9019 16.1803 5.9297 15.5295 5.662 14.976 5.56969 14.78 5.4866 14.5798 5.413 14.376 5.2106 13.796 4.73115 13.356 4.136 13.204L2.686 12.851C2.575 12.825 2.529 12.745 2.525 12.69 2.49206 12.2306 2.49206 11.7694 2.525 11.31 2.529 11.255 2.575 11.175 2.685 11.148L4.135 10.797C4.73077 10.6451 5.21069 10.2046 5.413 9.624 5.4866 9.42023 5.56969 9.22001 5.662 9.024 5.93006 8.47024 5.90226 7.81891 5.588 7.29L4.812 6.016C4.752 5.919 4.776 5.83 4.812 5.788 5.114 5.44 5.44 5.114 5.788 4.812 5.83 4.776 5.918 4.752 6.016 4.812L7.29 5.588C7.81891 5.90226 8.47024 5.93006 9.024 5.662 9.22001 5.56969 9.42023 5.4866 9.624 5.413 10.204 5.2106 10.644 4.73115 10.796 4.136L11.149 2.686C11.175 2.575 11.255 2.529 11.31 2.525Z" fill="#A6A6A6" fill-rule="evenodd"/></svg>