<svg width="24" height="24" viewBox="0 0 24 24" xmlns="http://www.w3.org/2000/svg" xmlns:xlink="http://www.w3.org/1999/xlink" overflow="hidden"><path d="M5.75 21C4.7835 21 4 20.2165 4 19.25 4 18.2835 4.7835 17.5 5.75 17.5 6.7165 17.5 7.5 18.2835 7.5 19.25 7.5 20.2165 6.7165 21 5.75 21ZM2.5 19.25C2.5 21.0449 3.95507 22.5 5.75 22.5 7.54493 22.5 9 21.0449 9 19.25 9 17.4551 7.54493 16 5.75 16 3.95507 16 2.5 17.4551 2.5 19.25ZM5.75 6.5C4.7835 6.5 4 5.7165 4 4.75 4 3.7835 4.7835 3 5.75 3 6.7165 3 7.5 3.7835 7.5 4.75 7.5 5.7165 6.7165 6.5 5.75 6.5ZM2.5 4.75C2.5 6.54493 3.95507 8 5.75 8 7.54493 8 9 6.54493 9 4.75 9 2.95507 7.54493 1.5 5.75 1.5 3.95507 1.5 2.5 2.95507 2.5 4.75ZM18.25 6.5C17.2835 6.5 16.5 5.7165 16.5 4.75 16.5 3.7835 17.2835 3 18.25 3 19.2165 3 20 3.7835 20 4.75 20 5.7165 19.2165 6.5 18.25 6.5ZM15 4.75C15 6.54493 16.4551 8 18.25 8 20.0449 8 21.5 6.54493 21.5 4.75 21.5 2.95507 20.0449 1.5 18.25 1.5 16.4551 1.5 15 2.95507 15 4.75Z" fill="#A6A6A6" fill-rule="evenodd"/><path d="M5.75 16.75C6.16421 16.75 6.5 16.4142 6.5 16L6.5 8C6.5 7.58579 6.16421 7.25 5.75 7.25 5.33579 7.25 5 7.58579 5 8L5 16C5 16.414 5.336 16.75 5.75 16.75Z" fill="#A6A6A6" fill-rule="evenodd"/><path d="M17.5 8.75 17.5 7.75 19 7.75 19 8.75C19 10.8211 17.3211 12.5 15.25 12.5L8.25 12.5C7.2835 12.5 6.5 13.2835 6.5 14.25L5 14.25C5 12.4551 6.45507 11 8.25 11L15.25 11C16.4926 11 17.5 9.99264 17.5 8.75Z" fill="#A6A6A6" fill-rule="evenodd"/></svg>