<svg width="24" height="24" viewBox="0 0 24 24" xmlns="http://www.w3.org/2000/svg" xmlns:xlink="http://www.w3.org/1999/xlink" overflow="hidden"><path d="M7.75 6.5C7.05964 6.5 6.5 7.05964 6.5 7.75 6.5 8.44036 7.05964 9 7.75 9 8.44036 9 9 8.44036 9 7.75 9 7.05964 8.44036 6.5 7.75 6.5Z" fill="#A6A6A6"/><path d="M2.5 1C1.67157 1 1 1.67157 1 2.5L1 10.94C1 11.337 1.158 11.719 1.44 12L11.69 22.25C12.2756 22.8349 13.2244 22.8349 13.81 22.25L22.25 13.81C22.8349 13.2244 22.8349 12.2756 22.25 11.69L12 1.44C11.719 1.15862 11.3377 1.00035 10.94 1L2.5 1ZM2.5 2.5 10.94 2.5 21.19 12.75 12.75 21.19 2.5 10.94 2.5 2.5Z" fill="#A6A6A6" fill-rule="evenodd"/></svg>