<svg width="24" height="24" viewBox="0 0 24 24" xmlns="http://www.w3.org/2000/svg" xmlns:xlink="http://www.w3.org/1999/xlink" overflow="hidden"><path d="M15.5 2.25C15.5 1.83579 15.8358 1.5 16.25 1.5L21.75 1.5C22.1642 1.5 22.5 1.83579 22.5 2.25L22.5 7.75C22.5 8.16421 22.1642 8.5 21.75 8.5 21.3358 8.5 21 8.16421 21 7.75L21 4.06 14.78 10.28C14.4976 10.583 14.023 10.5998 13.72 10.3174 13.417 10.035 13.4002 9.56046 13.6826 9.25742 13.6946 9.24451 13.7071 9.23203 13.72 9.22L19.94 3 16.25 3C15.8358 3 15.5 2.66421 15.5 2.25Z" fill="#A6A6A6"/><path d="M2.5 4.25C2.5 3.284 3.284 2.5 4.25 2.5L12.75 2.5C13.1642 2.5 13.5 2.83579 13.5 3.25 13.5 3.66421 13.1642 4 12.75 4L4.25 4C4.11193 4 4 4.11193 4 4.25L4 19.75C4 19.888 4.112 20 4.25 20L19.75 20C19.8881 20 20 19.8881 20 19.75L20 11.25C20 10.8358 20.3358 10.5 20.75 10.5 21.1642 10.5 21.5 10.8358 21.5 11.25L21.5 19.75C21.5 20.7165 20.7165 21.5 19.75 21.5L4.25 21.5C3.2835 21.5 2.5 20.7165 2.5 19.75L2.5 4.25Z" fill="#A6A6A6"/></svg>