<svg width="24" height="24" xmlns="http://www.w3.org/2000/svg" xmlns:xlink="http://www.w3.org/1999/xlink" overflow="hidden"><defs><clipPath id="clip0"><rect x="844" y="160" width="24" height="24"/></clipPath></defs><g clip-path="url(#clip0)" transform="translate(-844 -160)"><path d="M846.5 172C846.5 166.753 850.753 162.5 856 162.5 861.247 162.5 865.5 166.753 865.5 172 865.5 177.247 861.247 181.5 856 181.5 850.753 181.5 846.5 177.247 846.5 172ZM856 161C849.925 161 845 165.925 845 172 845 178.075 849.925 183 856 183 862.075 183 867 178.075 867 172 867 165.925 862.075 161 856 161ZM856 174C857.105 174 858 173.105 858 172 858 170.895 857.105 170 856 170 854.895 170 854 170.895 854 172 854 173.105 854.895 174 856 174Z" fill="#A6A6A6" fill-rule="evenodd"/></g></svg>