<svg width="24" height="24" viewBox="0 0 24 24" xmlns="http://www.w3.org/2000/svg" xmlns:xlink="http://www.w3.org/1999/xlink" overflow="hidden"><path d="M12 2.5C8.96243 2.49907 6.49925 4.96075 6.49832 7.99832 6.49776 9.8193 7.39854 11.5225 8.904 12.547 5.45162 13.8132 3.11601 17.0514 3.004 20.727 2.99157 21.1412 3.31729 21.4871 3.7315 21.4995 4.14571 21.5119 4.49157 21.1862 4.504 20.772 4.63053 16.6318 8.0894 13.3781 12.2296 13.5046 16.192 13.6257 19.3759 16.8096 19.497 20.772 19.5002 21.1862 19.8385 21.5194 20.2527 21.5163 20.6669 21.5131 21.0001 21.1748 20.997 20.7606 20.9969 20.7497 20.9966 20.7389 20.996 20.728 20.8844 17.0521 18.5487 13.8134 15.096 12.547 17.6072 10.8381 18.2576 7.41692 16.5487 4.90568 15.5242 3.40022 13.821 2.49944 12 2.5ZM8 8C8 5.79086 9.79086 4 12 4 14.2091 4 16 5.79086 16 8 16 10.2091 14.2091 12 12 12 9.79086 12 8 10.2091 8 8Z" fill="#A6A6A6" fill-rule="evenodd"/></svg>