<svg width="24" height="24" xmlns="http://www.w3.org/2000/svg" xmlns:xlink="http://www.w3.org/1999/xlink" overflow="hidden"><defs><clipPath id="clip0"><rect x="962" y="111" width="24" height="24"/></clipPath></defs><g clip-path="url(#clip0)" transform="translate(-962 -111)"><path d="M976.53 126.59C973.029 129.506 967.827 129.031 964.911 125.53 961.995 122.029 962.47 116.827 965.971 113.911 969.472 110.995 974.674 111.47 977.59 114.971 980.137 118.03 980.137 122.471 977.59 125.53L983.28 131.22C983.583 131.502 983.6 131.977 983.317 132.28 983.035 132.583 982.56 132.6 982.257 132.317 982.245 132.305 982.232 132.293 982.22 132.28L976.53 126.59ZM964.5 120.25C964.501 116.522 967.523 113.501 971.251 113.501 974.979 113.502 978.001 116.525 978 120.253 978 121.934 977.372 123.554 976.24 124.797 976.035 124.872 975.873 125.034 975.797 125.239 973.042 127.75 968.773 127.552 966.261 124.797 965.128 123.554 964.5 121.932 964.5 120.25Z" fill="#A6A6A6" fill-rule="evenodd"/></g></svg>