<svg width="161" height="115" xmlns="http://www.w3.org/2000/svg" xmlns:xlink="http://www.w3.org/1999/xlink" overflow="hidden"><defs><clipPath id="clip0"><rect x="458" y="257" width="161" height="115"/></clipPath></defs><g clip-path="url(#clip0)" transform="translate(-458 -257)"><path d="M562 258.849C562 258.38 562.38 258 562.849 258L618.151 258C618.62 258 619 258.38 619 258.849L619 285.151C619 285.62 618.62 286 618.151 286L562.849 286C562.38 286 562 285.62 562 285.151Z" fill="#595959" fill-rule="evenodd"/><path d="M459 271.122C459 269.398 460.398 268 462.122 268L615.878 268C617.602 268 619 269.398 619 271.122L619 367.878C619 369.602 617.602 371 615.878 371L462.122 371C460.398 371 459 369.602 459 367.878Z" fill="#595959" fill-rule="evenodd"/><path d="M481.5 276 611 276 611 348.5C611 356.508 604.508 363 596.5 363L467 363 467 290.5C467 282.492 473.492 276 481.5 276Z" fill="#FFFFFF" fill-rule="evenodd"/></g></svg>